<?xml version="1.0" encoding="utf-8"?>
<!-- Generator: Adobe Illustrator 23.0.3, SVG Export Plug-In . SVG Version: 6.00 Build 0)  -->
<svg version="1.1" id="Layer_1" xmlns="http://www.w3.org/2000/svg" xmlns:xlink="http://www.w3.org/1999/xlink" x="0px" y="0px"
	 viewBox="0 0 81.62 50.99" style="enable-background:new 0 0 81.62 50.99;" xml:space="preserve">
<style type="text/css">
	.st0{opacity:0.7;}
	.st1{fill:#9D9D9D;}
</style>
<g class="st0">
	<g>
		<g>
			<path class="st1" d="M75.13,21.65l-2.09-8.35c0.57-0.12,1-0.63,1-1.23v-1.35c0-2.92-2.38-5.3-5.3-5.3h-9.51V2.64
				c0-1.44-1.17-2.61-2.61-2.61H8.15c-1.44,0-2.61,1.17-2.61,2.61v22.89c0,0.7,0.57,1.26,1.26,1.26c0.7,0,1.26-0.57,1.26-1.26V2.64
				c0-0.05,0.04-0.08,0.08-0.08h48.47c0.05,0,0.08,0.04,0.08,0.08v22.89c0,0.7,0.57,1.26,1.26,1.26c0.7,0,1.26-0.57,1.26-1.26V24.1
				h14.89c0,0,0,0,0,0l0,0c1.83,0,3.39,1.2,3.92,2.86h-3.93c-0.7,0-1.26,0.57-1.26,1.26v2.69c0,2.18,1.77,3.96,3.96,3.96h1.43v5.55
				h-3.3c-1.08-3.13-4.06-5.39-7.55-5.39c-3.49,0-6.47,2.26-7.55,5.39h-0.61v-9.51c0-0.7-0.57-1.26-1.26-1.26
				c-0.7,0-1.26,0.57-1.26,1.26v9.51H30.52c-1.08-3.13-4.06-5.39-7.55-5.39s-6.47,2.26-7.55,5.39H8.15c-0.05,0-0.08-0.04-0.08-0.08
				v-2.78h5.47c0.7,0,1.26-0.57,1.26-1.26c0-0.7-0.57-1.26-1.26-1.26H1.42c-0.7,0-1.26,0.57-1.26,1.26c0,0.7,0.57,1.26,1.26,1.26
				h4.12v2.78c0,1.44,1.17,2.61,2.61,2.61h6.82c0,0.03,0,0.06,0,0.08c0,4.41,3.59,7.99,7.99,7.99s7.99-3.59,7.99-7.99
				c0-0.03,0-0.06,0-0.08H59.4c0,0.03,0,0.06,0,0.08c0,4.41,3.59,7.99,7.99,7.99s7.99-3.59,7.99-7.99c0-0.03,0-0.06,0-0.08h4.13
				c0.7,0,1.26-0.57,1.26-1.26V28.22C80.78,24.89,78.32,22.13,75.13,21.65z M59.23,7.94h9.51c1.53,0,2.78,1.25,2.78,2.78v0.08H59.23
				V7.94z M59.23,21.57v-8.25h11.22l2.06,8.25L59.23,21.57L59.23,21.57z M22.97,48.5c-3.02,0-5.47-2.45-5.47-5.47
				c0-3.02,2.45-5.47,5.47-5.47s5.47,2.45,5.47,5.47C28.44,46.05,25.98,48.5,22.97,48.5z M67.4,48.5c-3.02,0-5.47-2.45-5.47-5.47
				c0-3.02,2.45-5.47,5.47-5.47c3.02,0,5.47,2.45,5.47,5.47C72.87,46.05,70.41,48.5,67.4,48.5z M78.25,32.34h-1.43
				c-0.79,0-1.43-0.64-1.43-1.43v-1.43h2.86L78.25,32.34L78.25,32.34z"/>
		</g>
	</g>
	<g>
		<g>
			<path class="st1" d="M22.97,40.42c-1.44,0-2.61,1.17-2.61,2.61c0,1.44,1.17,2.61,2.61,2.61s2.61-1.17,2.61-2.61
				C25.57,41.59,24.4,40.42,22.97,40.42z"/>
		</g>
	</g>
	<g>
		<g>
			<path class="st1" d="M67.4,40.42c-1.44,0-2.61,1.17-2.61,2.61c0,1.44,1.17,2.61,2.61,2.61c1.44,0,2.61-1.17,2.61-2.61
				C70.01,41.59,68.84,40.42,67.4,40.42z"/>
		</g>
	</g>
	<g>
		<g>
			<path class="st1" d="M52.59,35.04H33.74c-0.7,0-1.26,0.57-1.26,1.26s0.57,1.26,1.26,1.26h18.85c0.7,0,1.26-0.57,1.26-1.26
				S53.28,35.04,52.59,35.04z"/>
		</g>
	</g>
	<g>
		<g>
			<path class="st1" d="M20.27,29.65H4.12c-0.7,0-1.26,0.57-1.26,1.26c0,0.7,0.57,1.26,1.26,1.26h16.16c0.7,0,1.26-0.57,1.26-1.26
				C21.53,30.21,20.97,29.65,20.27,29.65z"/>
		</g>
	</g>
</g>
</svg>
