<?xml version="1.0" encoding="utf-8"?>
<!-- Generator: Adobe Illustrator 23.0.3, SVG Export Plug-In . SVG Version: 6.00 Build 0)  -->
<svg version="1.1" id="Layer_1" xmlns="http://www.w3.org/2000/svg" xmlns:xlink="http://www.w3.org/1999/xlink" x="0px" y="0px"
	 viewBox="0 0 72 54.47" style="enable-background:new 0 0 72 54.47;" xml:space="preserve">
<style type="text/css">
	.st0{fill:#001A82;}
	.st1{fill:#FFFFFF;}
</style>
<rect y="0" class="st0" width="72" height="55"/>
<g transform="translate(-1 -1)">
	<g>
		<g>
			<path class="st1" d="M53.9,40.03l-7.18-4.74c-0.91-0.6-2.13-0.4-2.8,0.45l-2.09,2.66c-0.27,0.35-0.76,0.45-1.15,0.24l-0.4-0.22
				c-1.32-0.71-2.96-1.6-6.26-4.88s-4.2-4.9-4.92-6.21l-0.22-0.39c-0.22-0.39-0.12-0.87,0.24-1.14l2.69-2.07
				c0.86-0.67,1.06-1.88,0.46-2.78l-4.79-7.11c-0.62-0.92-1.85-1.2-2.81-0.63l-3,1.79c-0.94,0.55-1.63,1.44-1.93,2.48
				c-1.08,3.9-0.27,10.64,9.74,20.56c7.96,7.89,13.89,10.01,17.96,10.01c0.94,0,1.87-0.12,2.78-0.36c1.05-0.29,1.95-0.98,2.5-1.91
				l1.8-2.97C55.11,41.87,54.83,40.64,53.9,40.03z"/>
		</g>
	</g>
</g>
</svg>
