<?xml version="1.0" encoding="utf-8"?>
<!-- Generator: Adobe Illustrator 23.0.3, SVG Export Plug-In . SVG Version: 6.00 Build 0)  -->
<svg version="1.1" id="Layer_1" xmlns="http://www.w3.org/2000/svg" xmlns:xlink="http://www.w3.org/1999/xlink" x="0px" y="0px"
	 viewBox="0 0 78.21 78.2" style="enable-background:new 0 0 78.21 78.2;" xml:space="preserve">
<style type="text/css">
	.st0{fill:#9D9D9D;}
</style>
<g transform="translate(-1 -1)">
	<g>
		<g>
			<path class="st0" d="M77.22,61.18L61.39,50.62c-2.01-1.33-4.7-0.89-6.19,1l-4.61,5.93c-0.59,0.78-1.67,1.01-2.53,0.53l-0.88-0.48
				c-2.91-1.58-6.53-3.56-13.81-10.85s-9.27-10.91-10.85-13.81l-0.48-0.88c-0.48-0.86-0.26-1.94,0.52-2.54l5.92-4.61
				c1.9-1.49,2.33-4.18,1.01-6.19L18.94,2.9c-1.36-2.05-4.09-2.66-6.2-1.39L6.12,5.48c-2.08,1.22-3.61,3.2-4.26,5.53
				c-2.38,8.68-0.59,23.67,21.49,45.75c17.56,17.56,30.64,22.29,39.63,22.29c2.07,0.01,4.13-0.26,6.13-0.8
				c2.32-0.65,4.3-2.18,5.53-4.26l3.98-6.62C79.88,65.27,79.27,62.54,77.22,61.18z M76.37,66.04l-3.97,6.62
				c-0.88,1.5-2.3,2.61-3.97,3.08c-8.02,2.2-22.02,0.38-43.22-20.82S2.18,19.72,4.38,11.7c0.48-1.68,1.58-3.1,3.08-3.98l6.62-3.97
				c0.91-0.55,2.1-0.28,2.69,0.6l5.73,8.61l4.81,7.22c0.58,0.87,0.39,2.04-0.44,2.68l-5.93,4.61c-1.8,1.38-2.32,3.87-1.21,5.85
				l0.47,0.85c1.67,3.05,3.74,6.85,11.3,14.41c7.56,7.56,11.36,9.63,14.41,11.3l0.86,0.47c1.98,1.11,4.48,0.6,5.85-1.21l4.61-5.93
				c0.65-0.82,1.81-1.01,2.68-0.44l15.83,10.56C76.65,63.94,76.92,65.13,76.37,66.04z"/>
		</g>
	</g>
</g>
</svg>
