<?xml version="1.0" encoding="utf-8"?>
<!-- Generator: Adobe Illustrator 23.0.3, SVG Export Plug-In . SVG Version: 6.00 Build 0)  -->
<svg version="1.1" id="Layer_1" xmlns="http://www.w3.org/2000/svg" xmlns:xlink="http://www.w3.org/1999/xlink" x="0px" y="0px"
	 viewBox="0 0 120 120" style="enable-background:new 0 0 120 120;" xml:space="preserve">
<style type="text/css">
	.st0{fill:#7983EA;}
	.st1{fill:#4661D0;}
	.st2{fill:#EBEBF0;}
	.st3{fill:#E1E1E6;}
</style>
<g>
	<path class="st0" d="M120,17.58v84.84c0,9.7-7.88,17.58-17.58,17.58H74.06l-7.03-7.03H60L52.97,120H17.58
		C7.88,120,0,112.12,0,102.42V17.58C0,7.88,7.88,0,17.58,0h84.84C112.12,0,120,7.88,120,17.58z"/>
	<path class="st1" d="M120,17.58v84.84c0,9.7-7.88,17.58-17.58,17.58H74.06l-7.03-7.03h-3.52V0h38.91C112.12,0,120,7.88,120,17.58z"
		/>
	<path class="st2" d="M74.06,42.19v14.06h21.09l-3.52,21.09H74.06V120H52.97V77.34H38.91V56.25h14.06V42.19
		c0-7.8,4.29-14.63,10.55-18.28c3.09-1.76,6.75-2.81,10.55-2.81h21.09v21.09H74.06z"/>
	<path class="st3" d="M74.06,42.19v14.06h21.09l-3.52,21.09H74.06V120H63.52V23.91c3.09-1.76,6.75-2.81,10.55-2.81h21.09v21.09
		H74.06z"/>
</g>
</svg>
