<?xml version="1.0" encoding="utf-8"?>
<!-- Generator: Adobe Illustrator 23.0.3, SVG Export Plug-In . SVG Version: 6.00 Build 0)  -->
<svg version="1.1" id="Layer_1" xmlns="http://www.w3.org/2000/svg" xmlns:xlink="http://www.w3.org/1999/xlink" x="0px" y="0px"
	 viewBox="0 0 29 27.07" style="enable-background:new 0 0 29 27.07;" xml:space="preserve">
<style type="text/css">
	.st0{fill:#001A82;}
</style>
<g>
	<path class="st0" d="M28.01,0.96C27.39,0.34,26.55,0,25.68,0h0L3.27,0.01c-1.82,0-3.29,1.48-3.29,3.29l0.01,15.12
		c0,1.82,1.47,3.29,3.29,3.29h0l7.38,0l2.99,4.94c0,0,0,0.01,0.01,0.01c0.16,0.25,0.44,0.4,0.74,0.4h0c0.3,0,0.58-0.15,0.74-0.41
		c0,0,0-0.01,0.01-0.01l2.98-4.95l7.57,0c1.82,0,3.29-1.48,3.29-3.29L28.97,3.29C28.97,2.42,28.62,1.58,28.01,0.96z M25.69,20.72
		l-7.85,0c-0.17,0-0.33,0.09-0.42,0.24l-3.03,5.02l-3.04-5.02c-0.09-0.15-0.25-0.24-0.42-0.24l-7.65,0h0
		c-1.28,0-2.31-1.03-2.31-2.31L0.96,3.31c0-1.28,1.03-2.31,2.31-2.31l22.41-0.01h0c1.28,0,2.31,1.03,2.31,2.31L28,18.41
		C28,19.68,26.97,20.72,25.69,20.72z"/>
	<path class="st0" d="M23.41,13.74H5.55c-0.27,0-0.49,0.22-0.49,0.49c0,0.27,0.22,0.49,0.49,0.49h17.86c0.27,0,0.49-0.22,0.49-0.49
		C23.9,13.96,23.68,13.74,23.41,13.74z"/>
	<path class="st0" d="M23.41,10.24H5.55c-0.27,0-0.49,0.22-0.49,0.49c0,0.27,0.22,0.49,0.49,0.49h17.86c0.27,0,0.49-0.22,0.49-0.49
		C23.9,10.46,23.68,10.24,23.41,10.24z"/>
	<path class="st0" d="M23.41,6.74H5.55c-0.27,0-0.49,0.22-0.49,0.49s0.22,0.49,0.49,0.49h17.86c0.27,0,0.49-0.22,0.49-0.49
		S23.68,6.74,23.41,6.74z"/>
</g>
</svg>
