<?xml version="1.0" encoding="utf-8"?>
<!-- Generator: Adobe Illustrator 23.0.3, SVG Export Plug-In . SVG Version: 6.00 Build 0)  -->
<svg version="1.1" id="Layer_1" xmlns="http://www.w3.org/2000/svg" xmlns:xlink="http://www.w3.org/1999/xlink" x="0px" y="0px"
	 viewBox="0 0 79.21 79.21" style="enable-background:new 0 0 79.21 79.21;" xml:space="preserve">
<style type="text/css">
	.st0{fill:#9D9D9D;}
</style>
<g>
	<path class="st0" d="M72.36,0.75H7.19c-3.65,0-6.52,2.87-6.52,6.52v65.17c0,3.65,2.87,6.52,6.52,6.52h29.98h15.64h19.55
		c3.65,0,6.52-2.87,6.52-6.52V7.26C78.88,3.61,76.01,0.75,72.36,0.75z M39.78,76.34V50.28H29.35V39.85h10.43v-9.12
		c0-7.43,5.74-13.69,13.03-14.34h11.73v10.43H54.12c-2.22,0-3.91,1.69-3.91,3.91v9.12h13.03v10.43H50.21v26.07L39.78,76.34
		L39.78,76.34z M76.27,72.43c0,2.22-1.69,3.91-3.91,3.91H52.81V52.88h13.03V37.24H52.81v-6.52c0-0.78,0.52-1.3,1.3-1.3h13.03V13.78
		H52.68c-8.73,0.78-15.51,8.21-15.51,16.94v6.52H26.74v15.64h10.43v23.46H7.19c-2.22,0-3.91-1.69-3.91-3.91V7.26
		c0-2.22,1.69-3.91,3.91-3.91h65.17c2.22,0,3.91,1.69,3.91,3.91L76.27,72.43L76.27,72.43z"/>
</g>
</svg>
