<?xml version="1.0" encoding="utf-8"?>
<!-- Generator: Adobe Illustrator 23.0.3, SVG Export Plug-In . SVG Version: 6.00 Build 0)  -->
<svg version="1.1" id="Layer_1" xmlns="http://www.w3.org/2000/svg" xmlns:xlink="http://www.w3.org/1999/xlink" x="0px" y="0px"
	 viewBox="0 0 28.7 28" style="enable-background:new 0 0 28.7 28;" xml:space="preserve">
<style type="text/css">
	.st0{fill:#001A82;}
</style>
<path class="st0" d="M25.56,0c-1.73,0-3.13,1.37-3.13,3.05c0,0.53,0.14,1.02,0.38,1.46l-5.13,5c-0.71-0.54-1.59-0.86-2.55-0.86
	s-1.85,0.32-2.56,0.86l-4-3.9c0.18-0.3,0.3-0.65,0.3-1.03c0-1.12-0.94-2.04-2.09-2.04S4.69,3.46,4.69,4.58s0.94,2.04,2.09,2.04
	c0.39,0,0.74-0.11,1.05-0.29l4,3.9c-0.55,0.69-0.88,1.55-0.88,2.49s0.33,1.8,0.88,2.49l-6.61,6.45c-0.56-0.49-1.29-0.8-2.1-0.8
	C1.4,20.87,0,22.24,0,23.93c0,1.68,1.4,3.05,3.13,3.05s3.13-1.37,3.13-3.05c0-0.53-0.14-1.02-0.38-1.46l6.69-6.53
	c0.58,0.44,1.27,0.73,2.03,0.82v5.17c-1.48,0.24-2.61,1.5-2.61,3.01c0,1.68,1.4,3.05,3.13,3.05s3.13-1.37,3.13-3.05
	c0-1.51-1.13-2.76-2.61-3.01v-5.17c0.76-0.09,1.46-0.39,2.03-0.82l4,3.9c-0.18,0.3-0.3,0.65-0.3,1.03c0,1.12,0.94,2.04,2.09,2.04
	s2.09-0.91,2.09-2.04c0-1.12-0.94-2.04-2.09-2.04c-0.39,0-0.74,0.11-1.05,0.29l-4-3.9c0.55-0.69,0.88-1.55,0.88-2.49
	s-0.33-1.8-0.88-2.49l5.04-4.92c0.56,0.49,1.29,0.8,2.1,0.8c1.73,0,3.13-1.37,3.13-3.05S27.29,0,25.56,0z M5.74,4.58
	c0-0.56,0.47-1.02,1.04-1.02s1.04,0.46,1.04,1.02S7.36,5.6,6.78,5.6S5.74,5.14,5.74,4.58z M3.13,25.96c-1.15,0-2.09-0.91-2.09-2.04
	s0.94-2.04,2.09-2.04s2.09,0.91,2.09,2.04S4.28,25.96,3.13,25.96z M17.21,24.95c0,1.12-0.94,2.04-2.09,2.04s-2.09-0.91-2.09-2.04
	c0-1.12,0.94-2.04,2.09-2.04S17.21,23.82,17.21,24.95z M15.13,15.78c-1.73,0-3.13-1.37-3.13-3.05s1.4-3.05,3.13-3.05
	s3.13,1.37,3.13,3.05S16.85,15.78,15.13,15.78z M24.52,20.87c0,0.56-0.47,1.02-1.04,1.02c-0.58,0-1.04-0.46-1.04-1.02
	c0-0.56,0.47-1.02,1.04-1.02C24.05,19.85,24.52,20.31,24.52,20.87z M25.56,5.09c-1.15,0-2.09-0.91-2.09-2.04s0.94-2.04,2.09-2.04
	s2.09,0.91,2.09,2.04S26.71,5.09,25.56,5.09z"/>
</svg>
