<?xml version="1.0" encoding="utf-8"?>
<!-- Generator: Adobe Illustrator 23.0.3, SVG Export Plug-In . SVG Version: 6.00 Build 0)  -->
<svg version="1.1" id="Layer_1" xmlns="http://www.w3.org/2000/svg" xmlns:xlink="http://www.w3.org/1999/xlink" x="0px" y="0px"
	 viewBox="0 0 30.66 25.12" style="enable-background:new 0 0 30.66 25.12;" xml:space="preserve">
<style type="text/css">
	.st0{fill:#001A82;}
</style>
<g>
	<path class="st0" d="M30.37,11.95L16.59,0.81l-0.76-0.64c-0.29-0.24-0.71-0.24-1,0l-3.98,3.3v-1.4c0-0.43-0.35-0.78-0.78-0.78H7.11
		c-0.43,0-0.78,0.35-0.78,0.78v5.14l-6.04,4.93c-0.33,0.27-0.38,0.76-0.11,1.1c0.15,0.19,0.38,0.29,0.6,0.29
		c0.17,0,0.35-0.06,0.49-0.18l2.36-1.92v12.9c0,0.43,0.35,0.78,0.78,0.78h8.33c0.43,0,0.78-0.35,0.78-0.78V18.3h3.64v6.05
		c0,0.43,0.35,0.78,0.78,0.78h8.33c0.43,0,0.78-0.35,0.78-0.78V11.25l2.36,1.91c0.14,0.12,0.32,0.17,0.49,0.17
		c0.23,0,0.45-0.1,0.61-0.29C30.76,12.71,30.71,12.22,30.37,11.95z M7.89,2.86H9.3v1.86L7.89,5.86L7.89,2.86z M25.48,10.22v13.35
		h-6.77v-6.05c0-0.43-0.35-0.78-0.78-0.78h-5.19c-0.43,0-0.78,0.35-0.78,0.78v6.05H5.19V10.22L8.22,7.7c0,0,7.09-5.81,7.14-5.89
		L25.48,10.22z"/>
</g>
</svg>
