<?xml version="1.0" encoding="utf-8"?>
<!-- Generator: Adobe Illustrator 23.0.3, SVG Export Plug-In . SVG Version: 6.00 Build 0)  -->
<svg version="1.1" id="Layer_1" xmlns="http://www.w3.org/2000/svg" xmlns:xlink="http://www.w3.org/1999/xlink" x="0px" y="0px"
	 viewBox="0 0 24.03 24.38" style="enable-background:new 0 0 24.03 24.38;" xml:space="preserve">
<style type="text/css">
	.st0{fill:#F5F5F5;}
</style>
<g>
	<g>
		<g>
			<path class="st0" d="M23.67,21.39l-5.16-5.35c0.09-0.93,0.88-1.63,1.81-1.62c0.03,0,0.07-0.01,0.1-0.02
				c0.03,0.01,0.07,0.02,0.1,0.02l2.99,0.05c0.05,0,0.1-0.01,0.14-0.03c0.01-0.01,0.03-0.01,0.04-0.02
				c0.08-0.04,0.15-0.11,0.19-0.19c0,0,0-0.01,0.01-0.01l0,0c0.02-0.04,0.03-0.09,0.03-0.14c0-0.01,0-0.01,0-0.01l0.04-2.4
				c0-0.11-0.04-0.21-0.11-0.28l-2.35-2.44l-7.83-8.52l0,0c-0.03-0.03-0.07-0.06-0.11-0.08c-0.01,0-0.01-0.01-0.01-0.01
				c-0.05-0.02-0.1-0.03-0.16-0.03L0.61,0.09c-0.22,0-0.4,0.17-0.41,0.39l-0.04,2.4c0,0.11,0.04,0.21,0.11,0.28l4.98,5.17L5.26,8.77
				c-0.02,0.99-0.83,1.79-1.82,1.77l-2.99-0.05c-0.22,0-0.4,0.17-0.41,0.39L0,13.28c0,0.01,0,0.02,0,0.02c0,0.05,0.01,0.1,0.03,0.14
				c0.02,0.04,0.04,0.08,0.07,0.12l0,0L10.3,24.14c0.07,0.08,0.17,0.12,0.28,0.12l12.75,0.21c0.05,0,0.1-0.01,0.14-0.03
				c0.01-0.01,0.03-0.01,0.04-0.02c0.03-0.01,0.06-0.03,0.08-0.05c0.01-0.01,0.02-0.02,0.03-0.03c0.03-0.03,0.05-0.07,0.07-0.1
				c0,0,0-0.01,0.01-0.01l0,0c0.02-0.04,0.03-0.09,0.03-0.14c0-0.01,0-0.01,0-0.01l0.04-2.4C23.78,21.57,23.74,21.47,23.67,21.39z
				 M1.35,13.71l11.63,0.19l9.41,9.76l-11.63-0.19L1.35,13.71z M1.52,3.31l2.03,0.03c0.99,0.02,1.78,0.84,1.76,1.83L5.28,7.2
				L1.52,3.31z M12.96,1.1l-0.03,1.6l-2.59-0.04C8.91,2.63,7.73,3.77,7.71,5.21l-0.06,3.6c-0.02,1.44,1.12,2.62,2.55,2.64l2.59,0.04
				l-0.03,1.6L0.8,12.9l0.03-1.6l2.59,0.04c1.43,0.02,2.61-1.12,2.63-2.56l0.06-3.6c0.02-1.44-1.12-2.62-2.55-2.64L0.97,2.5L1,0.9
				L12.96,1.1L12.96,1.1z M23.14,11.83l-0.02,1.27l-1.68-1.75l-7.72-8.41l0.02-1.24L20.9,9.5L23.14,11.83L23.14,11.83z M17.84,15.35
				l-4.37-4.53c-0.07-0.08-0.17-0.12-0.28-0.12l-2.99-0.05c-0.99-0.02-1.78-0.84-1.76-1.83l0.06-3.6c0.02-0.99,0.83-1.79,1.82-1.77
				l2.82,0.05l7.72,8.4l1.69,1.75l-2.03-0.03c-0.03,0-0.07,0.01-0.1,0.02c-0.03-0.01-0.07-0.02-0.1-0.02
				C19.21,13.6,18.21,14.3,17.84,15.35z M22.98,21.83l-0.02,1.27l-9.41-9.76l0.02-1.27l4.23,4.39l0,0L22.98,21.83L22.98,21.83z"/>
		</g>
	</g>
</g>
</svg>
