<?xml version="1.0" encoding="utf-8"?>
<!-- Generator: Adobe Illustrator 23.0.3, SVG Export Plug-In . SVG Version: 6.00 Build 0)  -->
<svg version="1.1" id="Layer_1" xmlns="http://www.w3.org/2000/svg" xmlns:xlink="http://www.w3.org/1999/xlink" x="0px" y="0px"
	 viewBox="0 0 104.44 93.68" style="enable-background:new 0 0 104.44 93.68;" xml:space="preserve">
<style type="text/css">
	.st0{fill:#FFBE00;stroke:#000000;stroke-width:0.1738;stroke-miterlimit:10;}
	.st1{fill:#DDBB00;stroke:#000000;stroke-width:0.1738;stroke-miterlimit:10;}
	.st2{fill:#FFDC00;stroke:#000000;stroke-width:0.1738;stroke-miterlimit:10;}
	.st3{fill:#FDFF46;stroke:#000000;stroke-width:0.1738;stroke-miterlimit:10;}
	.st4{fill:#13117F;stroke:#13117F;stroke-width:0.087;stroke-miterlimit:10;}
	.st5{fill:#13117F;stroke:#DDBB00;stroke-width:0.1159;stroke-miterlimit:10;}
	.st6{fill:#DDBB00;stroke:#13117F;stroke-width:0.1738;stroke-miterlimit:10;}
	.st7{fill:#13117F;stroke:#13117F;stroke-width:0.1734;stroke-miterlimit:10;}
</style>
<g>
	<g>
		<polygon class="st0" points="0.21,27.13 31.19,27.6 31.28,21.98 19.78,21.8 20,7.2 31.08,7.37 31.18,0.54 1.52,0.09 1.43,6.39 
			12.94,6.56 12.71,21.69 1,21.51 		"/>
		<polygon class="st1" points="0.26,27.25 84.98,93.48 104.21,93.59 31.31,27.71 		"/>
		<polygon class="st0" points="31.25,27.59 31.34,21.93 104.21,88.67 104.13,93.45 		"/>
		<polygon class="st2" points="95.8,81.07 95.84,78.74 19.95,7.26 19.77,21.86 31.27,21.86 		"/>
		<polygon class="st1" points="1.59,6.56 12.88,6.63 12.7,16.81 		"/>
		<g>
			<line class="st3" x1="98.96" y1="73.12" x2="104.08" y2="78.07"/>
			<line class="st3" x1="31.46" y1="7.78" x2="98.96" y2="73.12"/>
			<polyline class="st0" points="104.09,78.04 104.14,74.71 31.21,0.65 31.02,7.34 			"/>
		</g>
		<polygon class="st1" points="98.06,78.46 104.03,78.04 30.92,7.32 20.04,7.14 20.01,7.12 95.94,78.61 		"/>
	</g>
	<g>
		<path class="st4" d="M51.17,61.44h-3.03v-1.22c0-0.42-0.03-0.71-0.1-0.86c-0.07-0.15-0.2-0.23-0.38-0.23
			c-0.19,0-0.31,0.07-0.37,0.2c-0.06,0.13-0.1,0.43-0.1,0.89v4.98c0,0.38,0.05,0.66,0.14,0.85c0.1,0.19,0.24,0.28,0.42,0.28
			c0.22,0,0.36-0.1,0.44-0.29c0.08-0.2,0.12-0.57,0.12-1.11v-1.26h2.87c-0.01,0.84-0.04,1.48-0.09,1.9
			c-0.06,0.42-0.23,0.85-0.53,1.3c-0.3,0.44-0.69,0.78-1.17,1c-0.48,0.23-1.08,0.34-1.79,0.34c-0.91,0-1.63-0.16-2.16-0.47
			c-0.53-0.31-0.91-0.75-1.13-1.31c-0.22-0.56-0.33-1.35-0.33-2.38v-3c0-0.9,0.09-1.57,0.27-2.03s0.57-0.86,1.15-1.22
			c0.59-0.36,1.31-0.54,2.15-0.54c0.84,0,1.55,0.18,2.15,0.53c0.59,0.36,0.99,0.8,1.19,1.35C51.07,59.68,51.17,60.45,51.17,61.44z"
			/>
		<path class="st4" d="M59.41,62.92h-4.16v2.28c0,0.48,0.03,0.79,0.1,0.92s0.2,0.21,0.4,0.21c0.24,0,0.41-0.09,0.49-0.27
			c0.08-0.18,0.12-0.54,0.12-1.06v-1.39h3.05v0.78c0,0.65-0.04,1.15-0.12,1.5c-0.08,0.35-0.27,0.72-0.58,1.12s-0.69,0.7-1.15,0.9
			c-0.46,0.2-1.05,0.3-1.75,0.3c-0.68,0-1.28-0.1-1.8-0.29c-0.52-0.2-0.92-0.47-1.21-0.81s-0.49-0.72-0.6-1.13
			c-0.11-0.41-0.17-1.01-0.17-1.79V61.1c0-0.92,0.12-1.65,0.37-2.18c0.25-0.53,0.66-0.94,1.23-1.23c0.57-0.28,1.22-0.43,1.96-0.43
			c0.9,0,1.65,0.17,2.23,0.51c0.59,0.34,1,0.8,1.23,1.36c0.24,0.57,0.35,1.36,0.35,2.38V62.92z M56.18,61.2v-0.77
			c0-0.55-0.03-0.9-0.09-1.06c-0.06-0.16-0.18-0.24-0.36-0.24c-0.22,0-0.36,0.07-0.41,0.2c-0.05,0.14-0.08,0.5-0.08,1.09v0.77H56.18
			z"/>
		<path class="st4" d="M63.67,57.46l-0.13,1.39c0.47-0.99,1.14-1.52,2.03-1.58v3.72c-0.59,0-1.02,0.08-1.3,0.24
			c-0.28,0.16-0.45,0.38-0.51,0.66c-0.06,0.28-0.1,0.94-0.1,1.96v4.17h-3.22V57.46H63.67z"/>
		<path class="st4" d="M73.57,61.16v2.59c0,0.95-0.05,1.65-0.14,2.09c-0.1,0.44-0.3,0.86-0.61,1.24c-0.31,0.38-0.72,0.67-1.21,0.85
			c-0.49,0.18-1.05,0.27-1.69,0.27c-0.71,0-1.31-0.08-1.81-0.23c-0.49-0.16-0.88-0.39-1.15-0.71c-0.27-0.32-0.47-0.7-0.59-1.15
			C66.25,65.67,66.2,65,66.2,64.1V61.4c0-0.98,0.11-1.75,0.32-2.3c0.21-0.55,0.59-1,1.15-1.33c0.55-0.33,1.26-0.5,2.12-0.5
			c0.72,0,1.34,0.11,1.86,0.32c0.52,0.22,0.92,0.49,1.2,0.84c0.28,0.34,0.47,0.7,0.58,1.07C73.52,59.86,73.57,60.42,73.57,61.16z
			 M70.35,60.37c0-0.54-0.03-0.88-0.09-1.02c-0.06-0.14-0.18-0.21-0.37-0.21s-0.32,0.07-0.38,0.21c-0.06,0.14-0.1,0.48-0.1,1.02
			v4.77c0,0.5,0.03,0.82,0.1,0.98c0.06,0.15,0.19,0.23,0.37,0.23c0.19,0,0.32-0.07,0.38-0.21c0.06-0.14,0.09-0.44,0.09-0.89V60.37z"
			/>
		<path class="st4" d="M81.19,60.83h-2.85v-0.57c0-0.49-0.03-0.8-0.08-0.93s-0.2-0.2-0.42-0.2c-0.18,0-0.32,0.06-0.41,0.18
			c-0.09,0.12-0.14,0.3-0.14,0.54c0,0.32,0.02,0.56,0.07,0.71c0.05,0.15,0.18,0.32,0.41,0.5c0.23,0.18,0.69,0.44,1.39,0.79
			c0.93,0.46,1.55,0.89,1.84,1.29c0.29,0.4,0.44,0.99,0.44,1.76c0,0.86-0.11,1.51-0.33,1.95c-0.22,0.44-0.6,0.77-1.12,1.01
			c-0.52,0.24-1.15,0.35-1.89,0.35c-0.82,0-1.52-0.13-2.1-0.38c-0.58-0.25-0.98-0.6-1.2-1.03c-0.22-0.44-0.33-1.09-0.33-1.97v-0.51
			h2.85v0.67c0,0.57,0.04,0.94,0.11,1.11c0.07,0.17,0.21,0.25,0.43,0.25c0.23,0,0.39-0.06,0.48-0.17c0.09-0.11,0.14-0.35,0.14-0.72
			c0-0.5-0.06-0.82-0.18-0.95c-0.12-0.13-0.75-0.5-1.87-1.13c-0.94-0.53-1.52-1.01-1.73-1.44c-0.21-0.43-0.31-0.95-0.31-1.54
			c0-0.84,0.11-1.47,0.33-1.87c0.22-0.4,0.6-0.71,1.13-0.93c0.53-0.22,1.15-0.33,1.86-0.33c0.7,0,1.3,0.09,1.79,0.27
			c0.49,0.18,0.87,0.41,1.13,0.7c0.26,0.29,0.42,0.56,0.48,0.81c0.06,0.25,0.08,0.64,0.08,1.17V60.83z"/>
	</g>
	<path class="st5" d="M12.68,50.07v35.39h9.1V70.51h12.11v15.07h8.87V50.63l-5.33-5.33H17.1C17.1,45.3,12.28,49.66,12.68,50.07z"/>
	<polygon class="st6" points="21.69,54.24 21.69,61.5 33.68,61.5 33.68,54.46 	"/>
	<g>
		<path class="st7" d="M45.55,72.97h2.34c1.56,0,2.61,0.06,3.16,0.18c0.55,0.12,1,0.43,1.35,0.92c0.35,0.49,0.52,1.28,0.52,2.36
			c0,0.99-0.12,1.65-0.37,1.99c-0.25,0.34-0.73,0.54-1.45,0.61c0.65,0.16,1.09,0.38,1.32,0.65c0.22,0.27,0.36,0.52,0.42,0.75
			c0.05,0.23,0.08,0.85,0.08,1.88v3.35h-3.06v-4.22c0-0.68-0.05-1.1-0.16-1.26c-0.11-0.16-0.39-0.24-0.84-0.24v5.72h-3.3V72.97z
			 M48.85,75.14v2.82c0.37,0,0.63-0.05,0.78-0.15c0.15-0.1,0.22-0.43,0.22-0.99v-0.7c0-0.4-0.07-0.67-0.22-0.79
			C49.49,75.21,49.23,75.14,48.85,75.14z"/>
		<path class="st7" d="M61.23,72.97l-2.41,8.1v4.59h-3.06v-4.59l-2.32-8.1h3.03c0.47,2.48,0.74,4.14,0.8,5
			c0.18-1.35,0.49-3.02,0.92-5H61.23z"/>
		<path class="st7" d="M66.69,72.97l1.89,12.69h-3.37l-0.18-2.28h-1.18l-0.2,2.28h-3.41l1.68-12.69H66.69z M64.95,81.13
			c-0.17-1.44-0.33-3.21-0.5-5.33c-0.34,2.43-0.55,4.21-0.63,5.33H64.95z"/>
		<path class="st7" d="M76.13,76.81h-3.06v-0.94c0-0.44-0.04-0.72-0.12-0.84c-0.08-0.12-0.21-0.18-0.39-0.18
			c-0.2,0-0.35,0.08-0.45,0.24c-0.1,0.16-0.15,0.41-0.15,0.74c0,0.42,0.06,0.74,0.17,0.96c0.11,0.21,0.42,0.47,0.93,0.78
			c1.47,0.87,2.39,1.59,2.78,2.15s0.57,1.46,0.57,2.7c0,0.9-0.11,1.57-0.32,2s-0.62,0.79-1.23,1.08c-0.61,0.29-1.31,0.44-2.12,0.44
			c-0.88,0-1.64-0.17-2.26-0.5s-1.03-0.76-1.23-1.28s-0.29-1.25-0.29-2.2v-0.83h3.06v1.54c0,0.48,0.04,0.78,0.13,0.92
			c0.09,0.14,0.24,0.2,0.46,0.2c0.22,0,0.38-0.09,0.49-0.26c0.11-0.17,0.16-0.43,0.16-0.77c0-0.75-0.1-1.24-0.31-1.47
			c-0.21-0.23-0.72-0.61-1.54-1.15c-0.82-0.54-1.36-0.94-1.63-1.18s-0.49-0.59-0.66-1.02c-0.18-0.43-0.26-0.99-0.26-1.66
			c0-0.97,0.12-1.68,0.37-2.13c0.25-0.45,0.65-0.8,1.2-1.05c0.55-0.25,1.22-0.38,2.01-0.38c0.86,0,1.59,0.14,2.19,0.42
			c0.6,0.28,1,0.63,1.2,1.05c0.2,0.42,0.29,1.14,0.29,2.14V76.81z"/>
		<path class="st7" d="M83.15,72.97l1.89,12.69h-3.37l-0.18-2.28H80.3l-0.2,2.28h-3.41l1.68-12.69H83.15z M81.4,81.13
			c-0.17-1.44-0.33-3.21-0.5-5.33c-0.34,2.43-0.55,4.21-0.63,5.33H81.4z"/>
	</g>
</g>
</svg>
