<?xml version="1.0" encoding="utf-8"?>
<!-- Generator: Adobe Illustrator 23.0.3, SVG Export Plug-In . SVG Version: 6.00 Build 0)  -->
<svg version="1.1" id="Layer_1" xmlns="http://www.w3.org/2000/svg" xmlns:xlink="http://www.w3.org/1999/xlink" x="0px" y="0px"
	 viewBox="0 0 24.75 27" style="enable-background:new 0 0 24.75 27;" xml:space="preserve">
<style type="text/css">
	.st0{fill:#001A82;}
</style>
<g>
	<g>
		<path class="st0" d="M24.71,7.58c-0.01-0.03-0.03-0.07-0.04-0.1c-0.02-0.06-0.04-0.11-0.07-0.17c-0.02-0.04-0.05-0.07-0.08-0.1
			c-0.03-0.04-0.06-0.09-0.1-0.13c-0.03-0.03-0.07-0.06-0.1-0.08c-0.04-0.03-0.07-0.06-0.11-0.09L12.96,0.16
			c-0.36-0.21-0.8-0.21-1.16,0L0.55,6.91C0.51,6.94,0.47,6.97,0.43,7C0.39,7.03,0.36,7.06,0.33,7.09c-0.04,0.04-0.07,0.08-0.1,0.13
			C0.2,7.25,0.17,7.28,0.15,7.32C0.12,7.37,0.1,7.42,0.08,7.48C0.07,7.51,0.05,7.55,0.04,7.58C0.01,7.68,0,7.78,0,7.88v11.25
			c0,0.39,0.21,0.76,0.55,0.96l11.25,6.75l0.01,0.01l0.01,0.01c0.06,0.03,0.12,0.06,0.18,0.08c0.03,0.01,0.05,0.02,0.08,0.03
			c0.19,0.05,0.39,0.05,0.59,0c0.03-0.01,0.05-0.02,0.08-0.03c0.06-0.02,0.13-0.04,0.18-0.08l0.01-0.01l0.01-0.01l11.25-6.75
			c0.34-0.2,0.55-0.57,0.55-0.96V7.88C24.75,7.78,24.74,7.68,24.71,7.58z M12.38,2.44l3.44,2.06L6.75,9.94L3.31,7.88L12.38,2.44z
			 M11.25,23.89l-9-5.4V9.86l9,5.4V23.89z M12.38,13.31l-3.44-2.06L18,5.81l3.44,2.06L12.38,13.31z M22.5,18.49l-9,5.4v-8.63l9-5.4
			V18.49z"/>
	</g>
</g>
</svg>
