<?xml version="1.0" encoding="utf-8"?>
<!-- Generator: Adobe Illustrator 23.0.3, SVG Export Plug-In . SVG Version: 6.00 Build 0)  -->
<svg version="1.1" id="Layer_1" xmlns="http://www.w3.org/2000/svg" xmlns:xlink="http://www.w3.org/1999/xlink" x="0px" y="0px"
	 viewBox="0 0 87 87" style="enable-background:new 0 0 87 87;" xml:space="preserve">
<style type="text/css">
	.st0{fill:#001A82;}
</style>
<g transform="translate(-1 -1)">
	<g>
		<g>
			<g>
				<path class="st0" d="M85.72,68.12L68.11,56.37c-2.23-1.48-5.23-0.99-6.88,1.12l-5.13,6.6c-0.66,0.87-1.86,1.12-2.81,0.59
					l-0.98-0.54c-3.23-1.76-7.26-3.96-15.37-12.07S26.63,39.93,24.87,36.7l-0.54-0.98c-0.54-0.95-0.29-2.16,0.58-2.82l6.59-5.13
					c2.11-1.65,2.6-4.65,1.12-6.88L20.88,3.28c-1.51-2.28-4.55-2.96-6.89-1.55L6.63,6.16C4.31,7.52,2.62,9.72,1.89,12.3
					c-2.65,9.66-0.66,26.34,23.91,50.9C45.33,82.75,59.88,88,69.88,88c2.3,0.01,4.59-0.29,6.81-0.89c2.58-0.72,4.79-2.42,6.15-4.74
					l4.43-7.36C88.68,72.67,87.99,69.63,85.72,68.12z"/>
				<path class="st0" d="M50.3,15.51c13.61,0.02,24.63,11.04,24.65,24.65c0,0.8,0.65,1.45,1.45,1.45s1.45-0.65,1.45-1.45
					C77.83,24.95,65.5,12.62,50.3,12.61c-0.8,0-1.45,0.65-1.45,1.45C48.85,14.86,49.5,15.51,50.3,15.51z"/>
				<path class="st0" d="M50.3,24.2c8.8,0.01,15.94,7.14,15.95,15.95c0,0.8,0.65,1.45,1.45,1.45c0.8,0,1.45-0.65,1.45-1.45
					c-0.01-10.4-8.44-18.84-18.85-18.85c-0.8,0-1.45,0.65-1.45,1.45C48.85,23.56,49.5,24.2,50.3,24.2z"/>
				<path class="st0" d="M50.3,32.9c4,0,7.24,3.25,7.25,7.25c0,0.8,0.65,1.45,1.45,1.45s1.45-0.65,1.45-1.45
					C60.44,34.55,55.9,30.01,50.3,30c-0.8,0-1.45,0.65-1.45,1.45C48.85,32.26,49.5,32.9,50.3,32.9z"/>
			</g>
		</g>
	</g>
</g>
</svg>
