<?xml version="1.0" encoding="utf-8"?>
<!-- Generator: Adobe Illustrator 23.0.3, SVG Export Plug-In . SVG Version: 6.00 Build 0)  -->
<svg version="1.1" id="Layer_1" xmlns="http://www.w3.org/2000/svg" xmlns:xlink="http://www.w3.org/1999/xlink" x="0px" y="0px"
	 viewBox="0 0 87 87" style="enable-background:new 0 0 87 87;" xml:space="preserve">
<style type="text/css">
	.st0{fill:#7983EA;}
	.st1{fill:#4661D0;}
	.st2{fill:#EBEBF0;}
	.st3{fill:#E1E1E6;}
</style>
<g>
	<path class="st0" d="M87,12.74v61.51C87,81.29,81.29,87,74.26,87H53.7l-5.1-5.1h-5.1L38.4,87H12.74C5.71,87,0,81.29,0,74.26V12.74
		C0,5.71,5.71,0,12.74,0h61.51C81.29,0,87,5.71,87,12.74z"/>
	<path class="st1" d="M87,12.74v61.51C87,81.29,81.29,87,74.26,87H53.7l-5.1-5.1h-2.55V0h28.21C81.29,0,87,5.71,87,12.74z"/>
	<path class="st2" d="M53.7,30.59v10.2h15.29l-2.55,15.29H53.7V87H38.4V56.07h-10.2V40.78h10.2v-10.2c0-5.66,3.11-10.6,7.65-13.25
		c2.24-1.27,4.89-2.04,7.65-2.04h15.29v15.29H53.7z"/>
	<path class="st3" d="M53.7,30.59v10.2h15.29l-2.55,15.29H53.7V87h-7.65V17.33c2.24-1.27,4.89-2.04,7.65-2.04h15.29v15.29H53.7z"/>
</g>
</svg>
