<?xml version="1.0" encoding="utf-8"?>
<!-- Generator: Adobe Illustrator 23.0.3, SVG Export Plug-In . SVG Version: 6.00 Build 0)  -->
<svg version="1.1" id="Layer_1" xmlns="http://www.w3.org/2000/svg" xmlns:xlink="http://www.w3.org/1999/xlink" x="0px" y="0px"
	 viewBox="0 0 74.69 73.58" style="enable-background:new 0 0 74.69 73.58;" xml:space="preserve">
<style type="text/css">
	.st0{opacity:0.9;fill:#FFBD00;}
	.st1{fill:#001A82;}
</style>
<g>
	<path class="st0" d="M62.68,73.58H12.02C5.38,73.58,0,68.2,0,61.56V12.02C0,5.38,5.38,0,12.02,0h50.66
		c6.64,0,12.02,5.38,12.02,12.02v49.54C74.69,68.2,69.31,73.58,62.68,73.58z"/>
	<g>
		<g>
			<path class="st1" d="M67.32,53.95l-12.95-8.64c-1.64-1.09-3.85-0.73-5.06,0.82l-3.77,4.85c-0.48,0.64-1.37,0.82-2.07,0.44
				l-0.72-0.4c-2.38-1.3-5.34-2.91-11.3-8.88s-7.58-8.93-8.88-11.3l-0.39-0.72c-0.4-0.7-0.21-1.59,0.43-2.08l4.85-3.77
				c1.55-1.22,1.91-3.42,0.82-5.06L19.63,6.26c-1.11-1.67-3.35-2.18-5.07-1.14L9.14,8.37c-1.7,1-2.95,2.62-3.48,4.52
				C3.7,20,5.17,32.27,23.24,50.34c14.37,14.37,25.07,18.24,32.43,18.24c1.69,0.01,3.38-0.21,5.01-0.65
				c1.9-0.53,3.52-1.78,4.52-3.48l3.26-5.41C69.5,57.3,69,55.07,67.32,53.95z M66.62,57.93l-3.25,5.42
				c-0.72,1.23-1.88,2.13-3.25,2.52c-6.56,1.8-18.02,0.31-35.37-17.04S5.91,20.02,7.71,13.46c0.39-1.37,1.29-2.54,2.52-3.26
				l5.42-3.25c0.75-0.45,1.72-0.23,2.2,0.49l4.69,7.05l3.94,5.91c0.47,0.71,0.32,1.67-0.36,2.2l-4.85,3.77
				c-1.48,1.13-1.9,3.17-0.99,4.79l0.39,0.7c1.36,2.5,3.06,5.61,9.24,11.8c6.19,6.19,9.3,7.88,11.79,9.24l0.7,0.39
				c1.62,0.91,3.66,0.49,4.79-0.99l3.77-4.85c0.53-0.67,1.48-0.83,2.2-0.36l12.95,8.64C66.86,56.21,67.07,57.18,66.62,57.93z"/>
			<path class="st1" d="M41.26,15.25c10.01,0.01,18.12,8.12,18.13,18.13c0,0.59,0.48,1.07,1.07,1.07s1.07-0.48,1.07-1.07
				c-0.01-11.19-9.08-20.25-20.26-20.26c-0.59,0-1.07,0.48-1.07,1.07C40.2,14.77,40.68,15.25,41.26,15.25z"/>
			<path class="st1" d="M41.26,21.65c6.48,0.01,11.72,5.26,11.73,11.73c0,0.59,0.48,1.07,1.07,1.07c0.59,0,1.07-0.48,1.07-1.07
				c-0.01-7.65-6.21-13.86-13.86-13.86c-0.59,0-1.07,0.48-1.07,1.07S40.68,21.65,41.26,21.65z"/>
			<path class="st1" d="M41.26,28.05c2.94,0,5.33,2.39,5.33,5.33c0,0.59,0.48,1.07,1.07,1.07s1.07-0.48,1.07-1.07
				c0-4.12-3.34-7.46-7.47-7.47c-0.59,0-1.07,0.48-1.07,1.07C40.2,27.57,40.68,28.05,41.26,28.05z"/>
		</g>
	</g>
</g>
</svg>
