<?xml version="1.0" encoding="utf-8"?>
<!-- Generator: Adobe Illustrator 23.0.3, SVG Export Plug-In . SVG Version: 6.00 Build 0)  -->
<svg version="1.1" id="Layer_1" xmlns="http://www.w3.org/2000/svg" xmlns:xlink="http://www.w3.org/1999/xlink" x="0px" y="0px"
	 viewBox="0 0 74.69 73.58" style="enable-background:new 0 0 74.69 73.58;" xml:space="preserve">
<style type="text/css">
	.st0{opacity:0.9;fill:#FFBD00;}
	.st1{fill:#001A82;}
</style>
<g>
	<path class="st0" d="M62.68,73.58H12.02C5.38,73.58,0,68.2,0,61.56V12.02C0,5.38,5.38,0,12.02,0h50.66
		c6.64,0,12.02,5.38,12.02,12.02v49.54C74.69,68.2,69.31,73.58,62.68,73.58z"/>
	<g>
		<g>
			<g>
				<path class="st1" d="M65.3,33.41l-1.7-6.82c0.47-0.1,0.82-0.51,0.82-1.01v-1.1c0-2.39-1.94-4.33-4.33-4.33h-7.76v-2.27
					c0-1.17-0.96-2.13-2.13-2.13H10.62c-1.17,0-2.13,0.96-2.13,2.13v18.68c0,0.57,0.46,1.03,1.03,1.03c0.57,0,1.03-0.46,1.03-1.03
					V17.89c0-0.04,0.03-0.07,0.07-0.07h39.57c0.04,0,0.07,0.03,0.07,0.07v18.68c0,0.57,0.46,1.03,1.03,1.03
					c0.57,0,1.03-0.46,1.03-1.03v-1.17h12.16c0,0,0,0,0,0c0,0,0,0,0,0c1.5,0,2.77,0.98,3.2,2.34h-3.2c-0.57,0-1.03,0.46-1.03,1.03
					v2.2c0,1.78,1.45,3.23,3.23,3.23h1.17v4.53h-2.69c-0.89-2.56-3.31-4.4-6.17-4.4s-5.28,1.84-6.17,4.4h-0.5v-7.76
					c0-0.57-0.46-1.03-1.03-1.03c-0.57,0-1.03,0.46-1.03,1.03v7.76H28.88c-0.89-2.56-3.31-4.4-6.17-4.4s-5.28,1.84-6.17,4.4h-5.92
					c-0.04,0-0.07-0.03-0.07-0.07V46.4h4.47c0.57,0,1.03-0.46,1.03-1.03s-0.46-1.03-1.03-1.03H5.13c-0.57,0-1.03,0.46-1.03,1.03
					s0.46,1.03,1.03,1.03h3.37v2.27c0,1.17,0.96,2.13,2.13,2.13h5.57c0,0.02,0,0.05,0,0.07c0,3.6,2.93,6.53,6.53,6.53
					s6.53-2.93,6.53-6.53c0-0.02,0-0.05,0-0.07h23.22c0,0.02,0,0.05,0,0.07c0,3.6,2.93,6.53,6.53,6.53c3.6,0,6.53-2.93,6.53-6.53
					c0-0.02,0-0.05,0-0.07h3.37c0.57,0,1.03-0.46,1.03-1.03V38.78C69.9,36.06,67.9,33.81,65.3,33.41z M52.32,22.22h7.76
					c1.25,0,2.27,1.02,2.27,2.27v0.07H52.32V22.22z M52.32,33.35v-6.73h9.16l1.68,6.73L52.32,33.35L52.32,33.35z M22.71,55.33
					c-2.46,0-4.47-2-4.47-4.47s2-4.47,4.47-4.47s4.47,2,4.47,4.47S25.17,55.33,22.71,55.33z M58.98,55.33c-2.46,0-4.47-2-4.47-4.47
					s2-4.47,4.47-4.47c2.46,0,4.47,2,4.47,4.47S61.44,55.33,58.98,55.33z M67.84,42.14h-1.17c-0.64,0-1.17-0.52-1.17-1.17v-1.17
					h2.34L67.84,42.14L67.84,42.14z"/>
			</g>
		</g>
		<g>
			<g>
				<path class="st1" d="M22.71,48.74c-1.17,0-2.13,0.96-2.13,2.13S21.54,53,22.71,53c1.17,0,2.13-0.96,2.13-2.13
					C24.84,49.69,23.89,48.74,22.71,48.74z"/>
			</g>
		</g>
		<g>
			<g>
				<path class="st1" d="M58.98,48.74c-1.17,0-2.13,0.96-2.13,2.13S57.81,53,58.98,53s2.13-0.96,2.13-2.13S60.16,48.74,58.98,48.74z
					"/>
			</g>
		</g>
		<g>
			<g>
				<path class="st1" d="M46.89,44.34H31.5c-0.57,0-1.03,0.46-1.03,1.03c0,0.57,0.46,1.03,1.03,1.03h15.39
					c0.57,0,1.03-0.46,1.03-1.03C47.92,44.8,47.46,44.34,46.89,44.34z"/>
			</g>
		</g>
		<g>
			<g>
				<path class="st1" d="M20.51,39.95H7.32c-0.57,0-1.03,0.46-1.03,1.03s0.46,1.03,1.03,1.03h13.19c0.57,0,1.03-0.46,1.03-1.03
					S21.08,39.95,20.51,39.95z"/>
			</g>
		</g>
		<g>
			<g>
				<path class="st1" d="M39.93,25.96c-0.4-0.4-1.05-0.4-1.46,0l-9.16,9.16l-4.77-4.77c-0.4-0.4-1.05-0.4-1.46,0
					c-0.4,0.4-0.4,1.05,0,1.46l5.5,5.5c0.2,0.2,0.46,0.3,0.73,0.3c0.26,0,0.53-0.1,0.73-0.3l9.89-9.89
					C40.33,27.01,40.33,26.36,39.93,25.96z"/>
			</g>
		</g>
	</g>
</g>
</svg>
