<?xml version="1.0" encoding="utf-8"?>
<!-- Generator: Adobe Illustrator 23.0.3, SVG Export Plug-In . SVG Version: 6.00 Build 0)  -->
<svg version="1.1" id="Layer_1" xmlns="http://www.w3.org/2000/svg" xmlns:xlink="http://www.w3.org/1999/xlink" x="0px" y="0px"
	 viewBox="0 0 27 27" style="enable-background:new 0 0 27 27;" xml:space="preserve">
<style type="text/css">
	.st0{fill:#001A82;}
</style>
<g>
	<g>
		<path class="st0" d="M25.62,10.67l-1.9-0.32c-0.2-0.64-0.45-1.25-0.76-1.84l1.12-1.56c0.47-0.67,0.4-1.57-0.18-2.15l-1.68-1.68
			c-0.32-0.32-0.73-0.49-1.18-0.49c-0.35,0-0.68,0.11-0.96,0.31l-1.57,1.12c-0.61-0.32-1.25-0.59-1.91-0.78l-0.32-1.87
			C16.15,0.59,15.45,0,14.64,0h-2.37c-0.82,0-1.51,0.59-1.65,1.39l-0.33,1.92c-0.63,0.2-1.25,0.46-1.83,0.77L6.9,2.97
			c-0.28-0.2-0.62-0.31-0.97-0.31c-0.45,0-0.87,0.17-1.18,0.49L3.07,4.83C2.49,5.4,2.41,6.31,2.89,6.98l1.13,1.58
			c-0.31,0.59-0.56,1.21-0.75,1.84l-1.87,0.32C0.59,10.86,0,11.55,0,12.37v2.37c0,0.82,0.59,1.51,1.39,1.65l1.92,0.33
			c0.2,0.63,0.46,1.25,0.77,1.83L2.97,20.1c-0.47,0.67-0.4,1.57,0.18,2.15l1.68,1.68c0.32,0.32,0.73,0.49,1.18,0.49
			c0.35,0,0.68-0.11,0.96-0.31l1.58-1.13c0.57,0.3,1.17,0.54,1.78,0.73l0.32,1.9C10.8,26.41,11.49,27,12.31,27h2.38
			c0.82,0,1.51-0.59,1.65-1.39l0.32-1.9c0.64-0.2,1.25-0.45,1.84-0.76l1.56,1.12c0.28,0.2,0.62,0.31,0.97,0.31l0,0
			c0.45,0,0.86-0.17,1.18-0.49l1.68-1.68c0.58-0.58,0.65-1.48,0.18-2.15l-1.12-1.57c0.31-0.59,0.57-1.21,0.76-1.84l1.9-0.32
			C26.41,16.2,27,15.51,27,14.69v-2.37C27.01,11.49,26.42,10.8,25.62,10.67z M25.49,14.69c0,0.07-0.05,0.14-0.12,0.15L23,15.23
			c-0.3,0.05-0.54,0.27-0.61,0.56c-0.21,0.83-0.54,1.62-0.98,2.36c-0.15,0.26-0.14,0.58,0.03,0.83l1.39,1.96
			c0.04,0.06,0.03,0.14-0.02,0.19l-1.68,1.68c-0.04,0.04-0.08,0.05-0.11,0.05c-0.03,0-0.06-0.01-0.08-0.03l-1.96-1.39
			c-0.24-0.17-0.57-0.19-0.83-0.03c-0.74,0.44-1.53,0.77-2.36,0.98c-0.29,0.07-0.51,0.32-0.56,0.61l-0.4,2.37
			c-0.01,0.07-0.07,0.12-0.15,0.12h-2.37c-0.07,0-0.14-0.05-0.15-0.12L11.77,23c-0.05-0.3-0.27-0.54-0.56-0.61
			c-0.81-0.21-1.58-0.53-2.31-0.95c-0.12-0.07-0.25-0.1-0.38-0.1c-0.15,0-0.31,0.05-0.44,0.14l-1.97,1.4
			c-0.03,0.02-0.06,0.03-0.08,0.03c-0.02,0-0.07-0.01-0.11-0.05l-1.68-1.68c-0.05-0.05-0.06-0.13-0.02-0.19l1.39-1.95
			c0.17-0.25,0.19-0.58,0.03-0.83c-0.44-0.73-0.78-1.53-0.99-2.36c-0.08-0.29-0.32-0.51-0.61-0.56l-2.39-0.41
			c-0.07-0.01-0.12-0.07-0.12-0.15v-2.37c0-0.07,0.05-0.14,0.12-0.15L4,11.83c0.3-0.05,0.54-0.27,0.61-0.56
			c0.21-0.83,0.53-1.63,0.96-2.37c0.15-0.26,0.14-0.58-0.04-0.82L4.13,6.1C4.09,6.04,4.1,5.96,4.15,5.91l1.68-1.68
			c0.04-0.04,0.08-0.05,0.11-0.05c0.03,0,0.06,0.01,0.08,0.03L7.97,5.6C8.22,5.77,8.55,5.78,8.8,5.63c0.73-0.44,1.53-0.78,2.36-0.99
			c0.29-0.08,0.51-0.32,0.56-0.61l0.41-2.39c0.01-0.07,0.07-0.12,0.15-0.12h2.37c0.07,0,0.14,0.05,0.15,0.12l0.39,2.35
			c0.05,0.3,0.27,0.54,0.56,0.61c0.85,0.21,1.66,0.55,2.42,0.99c0.26,0.15,0.58,0.14,0.83-0.03l1.95-1.4
			c0.03-0.02,0.06-0.03,0.08-0.03c0.02,0,0.07,0.01,0.11,0.05l1.68,1.68c0.05,0.05,0.06,0.13,0.02,0.19l-1.39,1.96
			c-0.17,0.24-0.19,0.57-0.03,0.83c0.44,0.74,0.77,1.53,0.98,2.36c0.07,0.29,0.32,0.51,0.61,0.56l2.37,0.4
			c0.07,0.01,0.12,0.07,0.12,0.15L25.49,14.69L25.49,14.69z"/>
		<path class="st0" d="M13.5,7.67c-3.21,0-5.83,2.61-5.83,5.83s2.61,5.83,5.83,5.83s5.83-2.61,5.83-5.83S16.72,7.67,13.5,7.67z
			 M13.5,17.8c-2.37,0-4.3-1.93-4.3-4.3s1.93-4.3,4.3-4.3s4.3,1.93,4.3,4.3S15.88,17.8,13.5,17.8z"/>
	</g>
</g>
</svg>
