<?xml version="1.0" encoding="utf-8"?>
<!-- Generator: Adobe Illustrator 23.0.3, SVG Export Plug-In . SVG Version: 6.00 Build 0)  -->
<svg version="1.1" id="Layer_1" xmlns="http://www.w3.org/2000/svg" xmlns:xlink="http://www.w3.org/1999/xlink" x="0px" y="0px"
	 viewBox="0 0 74.69 73.58" style="enable-background:new 0 0 74.69 73.58;" xml:space="preserve">
<style type="text/css">
	.st0{opacity:0.9;fill:#FFBD00;}
	.st1{fill:#001A82;}
</style>
<g>
	<path class="st0" d="M62.68,73.58H12.02C5.38,73.58,0,68.2,0,61.56V12.02C0,5.38,5.38,0,12.02,0h50.66
		c6.64,0,12.02,5.38,12.02,12.02v49.54C74.69,68.2,69.31,73.58,62.68,73.58z"/>
	<g>
		<g>
			<path class="st1" d="M37,4.08c-17.92,0-32.5,14.58-32.5,32.5s14.58,32.5,32.5,32.5s32.5-14.58,32.5-32.5S54.92,4.08,37,4.08z
				 M37,65.08c-15.72,0-28.5-12.78-28.5-28.5S21.28,8.08,37,8.08s28.5,12.78,28.5,28.5S52.72,65.08,37,65.08z"/>
			<circle class="st1" cx="37.52" cy="23.62" r="3.35"/>
			<path class="st1" d="M36.64,32.42c-1.1,0-2,0.9-2,2v17c0,1.1,0.9,2,2,2s2-0.9,2-2v-17C38.64,33.32,37.74,32.42,36.64,32.42z"/>
		</g>
	</g>
</g>
</svg>
