<?xml version="1.0" encoding="utf-8"?>
<!-- Generator: Adobe Illustrator 23.0.3, SVG Export Plug-In . SVG Version: 6.00 Build 0)  -->
<svg version="1.1" id="Layer_1" xmlns="http://www.w3.org/2000/svg" xmlns:xlink="http://www.w3.org/1999/xlink" x="0px" y="0px"
	 viewBox="0 0 74.69 73.58" style="enable-background:new 0 0 74.69 73.58;" xml:space="preserve">
<style type="text/css">
	.st0{opacity:0.9;fill:#FFBD00;}
	.st1{fill:#001A82;}
</style>
<g>
	<path class="st0" d="M62.68,73.58H12.02C5.38,73.58,0,68.2,0,61.56V12.02C0,5.38,5.38,0,12.02,0h50.66
		c6.64,0,12.02,5.38,12.02,12.02v49.54C74.69,68.2,69.31,73.58,62.68,73.58z"/>
	<g>
		<path class="st1" d="M65,25.58h-1v-12H16v-8h-5c-2.76,0-5,2.24-5,5v38c0,2.76,2.24,5,5,5h27v11c0,1.65,1.35,3,3,3h24
			c1.65,0,3-1.35,3-3v-36C68,26.93,66.65,25.58,65,25.58z M8,10.58c0-1.65,1.35-3,3-3h3v36h-3c-1.12,0-2.16,0.37-3,1V10.58z
			 M11,51.58c-1.65,0-3-1.35-3-3s1.35-3,3-3h5v-30h46v10H41.31c-1.68-4.75-6.22-8-11.31-8c-6.62,0-12,5.38-12,12s5.38,12,12,12
			c2.98,0,5.82-1.12,8-3.07v13.07H11z M38,28.58h-7v-8.94c3.77,0.38,7.04,2.88,8.37,6.43C38.54,26.61,38,27.53,38,28.58z M29,39.53
			c-5.05-0.5-9-4.77-9-9.95s3.95-9.45,9-9.95V39.53z M31,30.58h7v4.98c-1.68,2.25-4.23,3.68-7,3.96V30.58z M66,64.58
			c0,0.55-0.45,1-1,1H41c-0.55,0-1-0.45-1-1v-36c0-0.55,0.45-1,1-1h24c0.55,0,1,0.45,1,1V64.58z"/>
		<path class="st1" d="M42,39.58h22v-10H42V39.58z M44,31.58h18v6H44V31.58z"/>
		<path class="st1" d="M58,63.58h6v-6h-6V63.58z M60,59.58h2v2h-2V59.58z"/>
		<path class="st1" d="M50,63.58h6v-6h-6V63.58z M52,59.58h2v2h-2V59.58z"/>
		<path class="st1" d="M42,63.58h6v-6h-6V63.58z M44,59.58h2v2h-2V59.58z"/>
		<path class="st1" d="M58,55.58h6v-6h-6V55.58z M60,51.58h2v2h-2V51.58z"/>
		<path class="st1" d="M50,55.58h6v-6h-6V55.58z M52,51.58h2v2h-2V51.58z"/>
		<path class="st1" d="M42,55.58h6v-6h-6V55.58z M44,51.58h2v2h-2V51.58z"/>
		<path class="st1" d="M58,47.58h6v-6h-6V47.58z M60,43.58h2v2h-2V43.58z"/>
		<path class="st1" d="M50,47.58h6v-6h-6V47.58z M52,43.58h2v2h-2V43.58z"/>
		<path class="st1" d="M42,47.58h6v-6h-6V47.58z M44,43.58h2v2h-2V43.58z"/>
		<path class="st1" d="M46,17.58h14v2H46V17.58z"/>
		<path class="st1" d="M44,21.58h16v2H44V21.58z"/>
	</g>
</g>
</svg>
