<?xml version="1.0" encoding="utf-8"?>
<!-- Generator: Adobe Illustrator 23.0.3, SVG Export Plug-In . SVG Version: 6.00 Build 0)  -->
<svg version="1.1" id="Layer_1" xmlns="http://www.w3.org/2000/svg" xmlns:xlink="http://www.w3.org/1999/xlink" x="0px" y="0px"
	 viewBox="0 0 74.69 73.58" style="enable-background:new 0 0 74.69 73.58;" xml:space="preserve">
<style type="text/css">
	.st0{opacity:0.9;fill:#FFBD00;}
	.st1{fill:none;stroke:#001A82;stroke-width:1.1266;stroke-miterlimit:10;}
</style>
<g>
	<path class="st0" d="M62.68,73.58H12.02C5.38,73.58,0,68.2,0,61.56V12.02C0,5.38,5.38,0,12.02,0h50.66
		c6.64,0,12.02,5.38,12.02,12.02v49.54C74.69,68.2,69.31,73.58,62.68,73.58z"/>
	<g>
		<path class="st1" d="M30.67,38.83l0.15,28.82c0,0,5.51,3.27,13.19-0.07L43.86,39"/>
		<path class="st1" d="M44.39,40.63l-13.38,3.11c-0.54,0.13-1.08-0.21-1.21-0.75v0c-0.13-0.54,0.21-1.08,0.75-1.21l13.38-3.11
			c0.54-0.13,1.08,0.21,1.21,0.75v0C45.27,39.97,44.93,40.51,44.39,40.63z"/>
		<polygon class="st1" points="18.59,6.35 18.65,18.5 29.35,20.64 29.26,4.15 		"/>
		<path class="st1" d="M29.26,4.15l14.42-0.08c1.14-0.01,2.07,0.91,2.08,2.06l0.08,14.48L29.35,20.7l0.09,16.37
			c0.01,1.14,0.94,2.06,2.08,2.06l11.39-0.06c1.14-0.01,2.05-0.93,2.06-2.06l0.02-16.39"/>
		<polyline class="st1" points="45.84,20.61 55.41,18.31 55.35,6.03 44.9,4.38 		"/>
		<path class="st1" d="M44.27,44.66l-13.38,3.11c-0.54,0.13-1.08-0.21-1.21-0.75l0,0c-0.13-0.54,0.21-1.08,0.75-1.21l13.38-3.11
			c0.54-0.13,1.08,0.21,1.21,0.75v0C45.15,44,44.82,44.54,44.27,44.66z"/>
		<path class="st1" d="M44.3,49.36l-13.38,3.11c-0.54,0.13-1.08-0.21-1.21-0.75l0,0c-0.13-0.54,0.21-1.08,0.75-1.21l13.38-3.11
			c0.54-0.13,1.08,0.21,1.21,0.75l0,0C45.18,48.7,44.84,49.24,44.3,49.36z"/>
		<path class="st1" d="M44.32,54l-13.38,3.11c-0.54,0.13-1.08-0.21-1.21-0.75v0c-0.13-0.54,0.21-1.08,0.75-1.21l13.38-3.11
			c0.54-0.13,1.08,0.21,1.21,0.75v0C45.2,53.34,44.87,53.88,44.32,54z"/>
		<path class="st1" d="M44.35,58.71l-13.38,3.11c-0.54,0.13-1.08-0.21-1.21-0.75v0c-0.13-0.54,0.21-1.08,0.75-1.21l13.38-3.11
			c0.54-0.13,1.08,0.21,1.21,0.75v0C45.23,58.04,44.89,58.58,44.35,58.71z"/>
		<path class="st1" d="M44.37,63.35l-13.38,3.11c-0.54,0.13-1.08-0.21-1.21-0.75l0,0c-0.13-0.54,0.21-1.08,0.75-1.21l13.38-3.11
			c0.54-0.13,1.08,0.21,1.21,0.75v0C45.25,62.68,44.92,63.22,44.37,63.35z"/>
	</g>
</g>
</svg>
