<?xml version="1.0" encoding="utf-8"?>
<!-- Generator: Adobe Illustrator 23.0.3, SVG Export Plug-In . SVG Version: 6.00 Build 0)  -->
<svg version="1.1" id="Layer_1" xmlns="http://www.w3.org/2000/svg" xmlns:xlink="http://www.w3.org/1999/xlink" x="0px" y="0px"
	 viewBox="0 0 74.69 73.58" style="enable-background:new 0 0 74.69 73.58;" xml:space="preserve">
<style type="text/css">
	.st0{opacity:0.9;fill:#FFBD00;}
	.st1{fill:#001A82;}
</style>
<g>
	<path class="st0" d="M62.68,73.58H12.02C5.38,73.58,0,68.2,0,61.56V12.02C0,5.38,5.38,0,12.02,0h50.66
		c6.64,0,12.02,5.38,12.02,12.02v49.54C74.69,68.2,69.31,73.58,62.68,73.58z"/>
	<g>
		<g>
			<g>
				<path class="st1" d="M64.35,32.64c0-10.12-7.64-18.48-17.45-19.65l-5.16-6.35c-1.07-1.31-2.65-2.06-4.34-2.06h-6.69
					c-3.08,0-5.59,2.51-5.59,5.59c0,1.29,0.45,2.56,1.27,3.55l4.11,4.98c-0.34,0.35-0.68,0.71-1,1.08l-0.62,0.73l3.42,3.42
					c-1.96,2.59-3.05,5.77-3.05,9.03c0,5.5,2.99,10.3,7.42,12.9H14.81v-1.03h-2.06v1.03h-3.1v2.06h3.1v1.03h2.06v-1.03H21v4.13
					h-4.13v7.23c0,1.71,1.39,3.1,3.1,3.1H21v3.1c0,1.71,1.39,3.1,3.1,3.1h2.06c1.71,0,3.1-1.39,3.1-3.1v-3.1h22.71v3.1
					c0,1.71,1.39,3.1,3.1,3.1h2.06c1.71,0,3.1-1.39,3.1-3.1v-3.1h1.03c1.71,0,3.1-1.39,3.1-3.1V45.87h-5.1
					C62.52,42.25,64.35,37.56,64.35,32.64z M28,12.41c-0.52-0.63-0.8-1.43-0.8-2.24c0-1.94,1.58-3.53,3.53-3.53h6.69
					c1.07,0,2.06,0.47,2.74,1.3l3.98,4.9c-0.84,0.02-1.67,0.09-2.49,0.21l-3.1-3.81c-0.28-0.34-0.69-0.54-1.13-0.54l-6.63,0
					c-0.52,0-1.03,0.25-1.3,0.7c-0.34,0.55-0.27,1.21,0.11,1.69l4.11,4.99c-0.57,0.38-1.13,0.79-1.67,1.23L28,12.41z M39.37,13.53
					c-1.34,0.36-2.63,0.87-3.86,1.5L32,10.77h5.13L39.37,13.53z M31.71,20.42c3.35-3.52,7.98-5.52,12.84-5.52
					c9.78,0,17.74,7.96,17.74,17.74c0,4.87-2,9.49-5.52,12.84L46.46,35.17l-0.73,0.63c-0.44,0.38-1.2,0.85-2.27,0.77
					c-1.53-0.12-2.76-1.38-2.85-2.91c-0.06-1.03,0.4-1.77,0.77-2.2l0.63-0.73L31.71,20.42z M54.24,45.87h-2.45
					c0.51-0.3,1-0.63,1.47-0.98L54.24,45.87z M31.32,32.97c0-2.72,0.87-5.37,2.46-7.56l5.48,5.48c-0.46,0.79-0.71,1.68-0.71,2.59
					c0,2.85,2.32,5.16,5.16,5.16c0.91,0,1.8-0.25,2.59-0.71l5.48,5.48c-2.19,1.58-4.84,2.46-7.56,2.46
					C37.11,45.87,31.32,40.08,31.32,32.97z M27.19,47.93h16.52v-0.03c0.17,0.01,0.34,0.03,0.52,0.03c1.96,0,3.89-0.4,5.68-1.13v5.26
					H27.19V47.93z M23.06,47.93h2.06v4.13h-2.06V47.93z M27.19,65.48c0,0.57-0.46,1.03-1.03,1.03H24.1c-0.57,0-1.03-0.46-1.03-1.03
					v-3.1h4.13V65.48z M58.16,65.48c0,0.57-0.46,1.03-1.03,1.03h-2.06c-0.57,0-1.03-0.46-1.03-1.03v-3.1h4.13V65.48z M62.29,47.93
					v11.35c0,0.57-0.46,1.03-1.03,1.03H19.97c-0.57,0-1.03-0.46-1.03-1.03v-5.16h33.03v-6.19h4.34h0.81H62.29z"/>
			</g>
		</g>
		<g>
			<g>
				<path class="st1" d="M44.23,16.97c-2.86,0-5.66,0.76-8.11,2.21l1.05,1.78c2.13-1.26,4.58-1.92,7.07-1.92
					c5.87,0,11.14,3.71,13.12,9.23l1.94-0.7C57.02,21.23,50.97,16.97,44.23,16.97z"/>
			</g>
		</g>
		<g>
			<g>
				<path class="st1" d="M59.84,29.44l-2.01,0.45c0.12,0.53,0.21,1.08,0.27,1.63l2.05-0.21C60.08,30.69,59.97,30.06,59.84,29.44z"/>
			</g>
		</g>
		<g>
			<g>
				<path class="st1" d="M57.38,50.01c-1.91-0.15-3.49,1.43-3.34,3.34c0.12,1.5,1.33,2.71,2.83,2.83c1.91,0.15,3.49-1.43,3.34-3.34
					C60.1,51.34,58.88,50.13,57.38,50.01z M57.34,54.11c-0.73,0.14-1.36-0.48-1.22-1.21c0.08-0.41,0.4-0.73,0.81-0.81
					c0.73-0.14,1.36,0.48,1.22,1.21C58.07,53.7,57.74,54.03,57.34,54.11z"/>
			</g>
		</g>
	</g>
</g>
</svg>
