<?xml version="1.0" encoding="utf-8"?>
<!-- Generator: Adobe Illustrator 23.0.3, SVG Export Plug-In . SVG Version: 6.00 Build 0)  -->
<svg version="1.1" id="Layer_1" xmlns="http://www.w3.org/2000/svg" xmlns:xlink="http://www.w3.org/1999/xlink" x="0px" y="0px"
	 viewBox="0 0 74.69 73.58" style="enable-background:new 0 0 74.69 73.58;" xml:space="preserve">
<style type="text/css">
	.st0{opacity:0.9;fill:#FFBD00;}
	.st1{fill:#001A82;}
</style>
<g>
	<path class="st0" d="M62.68,73.58H12.02C5.38,73.58,0,68.2,0,61.56V12.02C0,5.38,5.38,0,12.02,0h50.66
		c6.64,0,12.02,5.38,12.02,12.02v49.54C74.69,68.2,69.31,73.58,62.68,73.58z"/>
	<g>
		<g>
			<g>
				<path class="st1" d="M63.52,14.25H10.48c-3.85,0-6.98,3.13-6.98,6.98v30.71c0,3.85,3.13,6.98,6.98,6.98h53.04
					c3.85,0,6.98-3.13,6.98-6.98V21.22C70.5,17.38,67.37,14.25,63.52,14.25z M67.71,51.93c0,2.31-1.88,4.19-4.19,4.19H10.48
					c-2.31,0-4.19-1.88-4.19-4.19V21.22c0-2.31,1.88-4.19,4.19-4.19h53.04c2.31,0,4.19,1.88,4.19,4.19L67.71,51.93L67.71,51.93z"/>
			</g>
		</g>
		<g>
			<g>
				<path class="st1" d="M69.1,22.62H4.9c-0.77,0-1.4,0.63-1.4,1.4v8.38c0,0.77,0.63,1.4,1.4,1.4H69.1c0.77,0,1.4-0.63,1.4-1.4
					v-8.38C70.5,23.25,69.87,22.62,69.1,22.62z M67.71,31H6.29v-5.58h61.42L67.71,31L67.71,31z"/>
			</g>
		</g>
		<g>
			<g>
				<path class="st1" d="M30.02,42.16H13.27c-0.77,0-1.4,0.63-1.4,1.4s0.63,1.4,1.4,1.4h16.75c0.77,0,1.4-0.63,1.4-1.4
					S30.79,42.16,30.02,42.16z"/>
			</g>
		</g>
		<g>
			<g>
				<path class="st1" d="M30.02,47.75H13.27c-0.77,0-1.4,0.63-1.4,1.4s0.63,1.4,1.4,1.4h16.75c0.77,0,1.4-0.63,1.4-1.4
					C31.42,48.37,30.79,47.75,30.02,47.75z"/>
			</g>
		</g>
		<g>
			<g>
				<path class="st1" d="M57.94,39.37h-2.79c-2.31,0-4.19,1.88-4.19,4.19v2.79c0,2.31,1.88,4.19,4.19,4.19h2.79
					c2.31,0,4.19-1.88,4.19-4.19v-2.79C62.13,41.25,60.25,39.37,57.94,39.37z M59.33,46.35c0,0.77-0.63,1.4-1.4,1.4h-2.79
					c-0.77,0-1.4-0.63-1.4-1.4v-2.79c0-0.77,0.63-1.4,1.4-1.4h2.79c0.77,0,1.4,0.63,1.4,1.4V46.35z"/>
			</g>
		</g>
	</g>
</g>
</svg>
