<?xml version="1.0" encoding="utf-8"?>
<!-- Generator: Adobe Illustrator 23.0.3, SVG Export Plug-In . SVG Version: 6.00 Build 0)  -->
<svg version="1.1" id="Layer_1" xmlns="http://www.w3.org/2000/svg" xmlns:xlink="http://www.w3.org/1999/xlink" x="0px" y="0px"
	 viewBox="0 0 101.95 145" style="enable-background:new 0 0 101.95 145;" xml:space="preserve">
<style type="text/css">
	.st0{fill:#FC003A;}
	.st1{fill:#E40027;}
</style>
<g>
	<path class="st0" d="M51,0C22.88,0,0.02,22.85,0.02,50.98c0,9.52,2.63,18.78,7.65,26.76l39.87,65.25c0.68,1.1,1.7,1.78,2.89,1.95
		c1.61,0.25,3.4-0.42,4.33-2.04l39.99-65.85c4.76-7.82,7.22-16.91,7.22-26.08C101.98,22.85,79.12,0,51,0z M51,76.46
		c-14.27,0-25.49-11.55-25.49-25.49c0-14.02,11.47-25.49,25.49-25.49s25.49,11.47,25.49,25.49C76.49,64.83,65.44,76.46,51,76.46z"/>
	<path class="st1" d="M51,0v25.49c14.02,0,25.49,11.47,25.49,25.49c0,13.85-11.05,25.49-25.49,25.49V145
		c1.45,0.03,2.94-0.66,3.77-2.09l39.99-65.85c4.76-7.82,7.22-16.91,7.22-26.08C101.98,22.85,79.12,0,51,0z"/>
</g>
</svg>
