<?xml version="1.0" encoding="utf-8"?>
<!-- Generator: Adobe Illustrator 23.0.3, SVG Export Plug-In . SVG Version: 6.00 Build 0)  -->
<svg version="1.1" id="Layer_1" xmlns="http://www.w3.org/2000/svg" xmlns:xlink="http://www.w3.org/1999/xlink" x="0px" y="0px"
	 viewBox="0 0 21.28 30.27" style="enable-background:new 0 0 21.28 30.27;" xml:space="preserve">
<style type="text/css">
	.st0{fill:#001A82;}
</style>
<g>
	<g>
		<g>
			<path class="st0" d="M10.64,0C4.77,0,0,4.77,0,10.64c0,1.98,0.55,3.92,1.59,5.6l8.45,13.61c0.16,0.26,0.45,0.42,0.75,0.42
				c0,0,0,0,0.01,0c0.31,0,0.59-0.17,0.75-0.43l8.23-13.74c0.98-1.64,1.5-3.53,1.5-5.45C21.28,4.77,16.51,0,10.64,0z M18.26,15.18
				l-7.48,12.49L3.1,15.3c-0.87-1.4-1.33-3.01-1.33-4.66c0-4.89,3.99-8.88,8.88-8.88s8.87,3.99,8.87,8.88
				C19.51,12.24,19.08,13.81,18.26,15.18z"/>
		</g>
	</g>
	<g>
		<g>
			<path class="st0" d="M10.64,4.88c-2.93,0-5.32,2.39-5.32,5.32c0,2.91,2.35,5.32,5.32,5.32c3.01,0,5.32-2.44,5.32-5.32
				C15.96,7.27,13.57,4.88,10.64,4.88z M10.64,13.76c-1.97,0-3.56-1.6-3.56-3.56c0-1.96,1.6-3.56,3.56-3.56s3.55,1.6,3.55,3.56
				C14.19,12.13,12.64,13.76,10.64,13.76z"/>
		</g>
	</g>
</g>
</svg>
