<?xml version="1.0" encoding="utf-8"?>
<!-- Generator: Adobe Illustrator 23.0.3, SVG Export Plug-In . SVG Version: 6.00 Build 0)  -->
<svg version="1.1" id="Layer_1" xmlns="http://www.w3.org/2000/svg" xmlns:xlink="http://www.w3.org/1999/xlink" x="0px" y="0px"
	 viewBox="0 0 24.5 24.5" style="enable-background:new 0 0 24.5 24.5;" xml:space="preserve">
<style type="text/css">
	.st0{fill:none;stroke:#FFFFFF;stroke-width:0.5;stroke-miterlimit:10;}
</style>
<path class="st0" d="M20.43,0.39c-0.19-0.19-0.51-0.19-0.7,0L12.6,7.53c-0.19,0.19-0.51,0.19-0.7,0L4.77,0.39
	c-0.19-0.19-0.51-0.19-0.7,0L0.39,4.07c-0.19,0.19-0.19,0.51,0,0.7l7.14,7.14c0.19,0.19,0.19,0.51,0,0.7l-7.14,7.14
	c-0.19,0.19-0.19,0.51,0,0.7l3.67,3.67c0.19,0.19,0.51,0.19,0.7,0l7.14-7.14c0.19-0.19,0.51-0.19,0.7,0l7.14,7.14
	c0.19,0.19,0.51,0.19,0.7,0l3.67-3.67c0.19-0.19,0.19-0.51,0-0.7l-7.14-7.14c-0.19-0.19-0.19-0.51,0-0.7l7.14-7.14
	c0.19-0.19,0.19-0.51,0-0.7L20.43,0.39z"/>
</svg>
